<svg width="165" height="35" xmlns="http://www.w3.org/2000/svg"><g fill="none" fill-rule="evenodd"><path d="M56.616 6.8l2.688 16.8H56.64l-.456-3.048h-3.24l-.456 3.048h-2.424l2.688-16.8h3.864zm-2.064 2.976l-1.272 8.496h2.544l-1.272-8.496zM59.76 9.2V6.8h8.16v2.4h-2.76v14.4h-2.64V9.2h-2.76zm8.544 0V6.8h8.16v2.4h-2.76v14.4h-2.64V9.2h-2.76zm17.52 14.4h-2.688c-.144-.432-.24-.696-.24-2.064v-2.64c0-1.56-.528-2.136-1.728-2.136h-.912v6.84h-2.64V6.8H81.6c2.736 0 3.912 1.272 3.912 3.864v1.32c0 1.728-.552 2.856-1.728 3.408 1.32.552 1.752 1.824 1.752 3.576v2.592c0 .816.024 1.416.288 2.04zM81.528 9.2h-1.272v5.16h1.032c.984 0 1.584-.432 1.584-1.776v-1.656c0-1.2-.408-1.728-1.344-1.728zM93.12 6.8l2.688 16.8h-2.664l-.456-3.048h-3.24l-.456 3.048h-2.424l2.688-16.8h3.864zm-2.064 2.976l-1.272 8.496h2.544l-1.272-8.496zm11.136 7.56h2.496v2.232c0 2.688-1.344 4.224-3.936 4.224-2.592 0-3.936-1.536-3.936-4.224v-8.736c0-2.688 1.344-4.224 3.936-4.224 2.592 0 3.936 1.536 3.936 4.224v1.632h-2.496v-1.8c0-1.2-.528-1.656-1.368-1.656-.84 0-1.368.456-1.368 1.656v9.072c0 1.2.528 1.632 1.368 1.632.84 0 1.368-.432 1.368-1.632v-2.4zm3.336-8.136V6.8h8.16v2.4h-2.76v14.4h-2.64V9.2h-2.76zm16.992 7.44v-2.4h3.696v5.328c0 2.688-1.344 4.224-3.936 4.224-2.592 0-3.936-1.536-3.936-4.224v-8.736c0-2.688 1.344-4.224 3.936-4.224 2.592 0 3.936 1.536 3.936 4.224v1.632h-2.496v-1.8c0-1.2-.528-1.656-1.368-1.656-.84 0-1.368.456-1.368 1.656v9.072c0 1.2.528 1.632 1.368 1.632.84 0 1.368-.432 1.368-1.632V16.64h-1.2zm13.608 6.96h-2.688c-.144-.432-.24-.696-.24-2.064v-2.64c0-1.56-.528-2.136-1.728-2.136h-.912v6.84h-2.64V6.8h3.984c2.736 0 3.912 1.272 3.912 3.864v1.32c0 1.728-.552 2.856-1.728 3.408 1.32.552 1.752 1.824 1.752 3.576v2.592c0 .816.024 1.416.288 2.04zm-4.296-14.4h-1.272v5.16h1.032c.984 0 1.584-.432 1.584-1.776v-1.656c0-1.2-.408-1.728-1.344-1.728zm8.16 1.464v9.072c0 1.2.528 1.656 1.368 1.656.84 0 1.368-.456 1.368-1.656v-9.072c0-1.2-.528-1.656-1.368-1.656-.84 0-1.368.456-1.368 1.656zm-2.64 8.904v-8.736c0-2.688 1.416-4.224 4.008-4.224s4.008 1.536 4.008 4.224v8.736c0 2.688-1.416 4.224-4.008 4.224s-4.008-1.536-4.008-4.224zm9.6-12.768h2.64v12.96c0 1.2.528 1.632 1.368 1.632.84 0 1.368-.432 1.368-1.632V6.8h2.496v12.792c0 2.688-1.344 4.224-3.936 4.224-2.592 0-3.936-1.536-3.936-4.224V6.8zm13.56 0c2.64 0 3.936 1.464 3.936 4.152v2.184c0 2.688-1.296 4.152-3.936 4.152h-1.248V23.6h-2.64V6.8h3.888zm0 2.4h-1.248v5.688h1.248c.84 0 1.296-.384 1.296-1.584v-2.52c0-1.2-.456-1.584-1.296-1.584z" fill="#06182F"/><path fill="#56B9EA" fill-rule="nonzero" d="M7.703 8.706l20.532 4.28-7.732 21.334z"/><path fill="#06182F" fill-rule="nonzero" d="M.555 5.854L45.341.25 24.449 26.76l5.501-14.788z"/></g></svg>